<svg width="810" height="527" viewBox="0 0 810 527" fill="none" xmlns="http://www.w3.org/2000/svg">
<g clip-path="url(#clip0_109_119)">
<path d="M429.68 0.443199C406.013 1.45666 378.802 4.81375 363.614 8.61423C346.465 12.9214 327.67 22.0426 314.191 32.6206C309.255 36.4844 309.066 36.6744 309.319 38.8914C309.572 40.855 308.749 42.4385 302.927 51.7497C299.32 57.6404 291.284 71.1955 285.082 82.0268C278.88 92.7949 272.046 104.703 269.831 108.44C267.68 112.114 263.377 119.652 260.339 125.226C257.365 130.736 254.011 136.31 252.998 137.641C247.936 143.975 241.988 146.065 208.512 153.286C178.77 159.683 173.264 161.584 149.344 173.428C128.967 183.626 126.183 185.273 112.767 195.281C104.667 201.362 103.465 202.059 101.06 202.059C97.2 202.122 88.1508 204.212 80.8102 206.873C77.2664 208.139 73.7227 209.343 72.9 209.47C71.9508 209.723 69.0398 208.583 64.357 206.239C55.118 201.615 51.8273 200.982 42.7148 201.995C31.4508 203.199 26.4516 206.366 22.5281 214.664C20.6297 218.654 20.5664 219.161 20.5664 227.079C20.5664 236.01 21.0727 237.91 25.3758 244.624L27.2742 247.601L24.4266 252.542C20.6297 259.066 18.7313 264.45 17.4656 271.734C16.2 279.588 14.9344 297.767 15.4406 301.505C15.757 303.912 15.3773 305.685 13.2891 311.639L10.7578 318.86V329.438V340.079L8.1 340.84C4.87266 341.663 2.78438 343.437 1.96172 346.097C1.26563 348.25 0 359.652 0 363.896C0 367.443 2.08828 369.977 6.96094 372.447C8.98594 373.46 11.4539 375.297 12.4031 376.501C14.3016 378.718 19.4273 381.188 33.5391 386.572C42.968 390.182 46.0688 392.336 48.9797 397.15C58.1555 412.542 73.7227 423.69 92.9602 428.631C110.489 433.128 130.486 429.834 142.13 420.523C149.217 414.886 150.989 414.506 154.47 417.799C156.305 419.573 156.621 419.636 173.074 421.22C176.555 421.536 183.705 422.36 188.895 423.057C206.234 425.337 214.713 425.907 230.977 425.907C248.442 425.907 254.707 425.274 259.453 422.93C262.934 421.22 263.82 419.129 263.883 412.352C263.946 405.511 265.022 402.281 267.68 401.204C269.578 400.38 277.172 398.417 278.374 398.417C278.691 398.417 279.07 403.167 279.26 409.058C279.64 420.713 281.032 427.997 284.766 437.435C292.549 457.071 307.484 473.983 325.266 483.168C348.616 495.266 372.98 493.999 393.293 479.62C401.899 473.54 412.594 461.505 418.352 451.434C427.718 434.965 433.666 409.312 434.552 381.188L434.932 368.773L446.386 368.52L457.84 368.266L459.738 370.04C462.143 372.194 462.649 372.257 465.054 370.167C467.395 368.203 468.028 368.456 473.977 374.03C480.621 380.301 484.228 381.695 488.784 379.794C490.556 379.098 491.189 378.211 492.265 375.297C495.049 367.823 496.125 364.213 496.125 362.059C496.125 360.095 496.378 359.779 497.897 359.399C498.846 359.209 505.617 357.372 512.895 355.345C520.235 353.318 530.487 350.467 535.676 349.074C563.456 341.663 587.693 335.266 604.336 331.022C614.588 328.361 626.548 325.258 630.914 324.054C664.263 315.06 682.741 310.119 684.387 309.929L686.285 309.612L687.741 319.05C693.246 355.535 702.738 374.03 719.191 380.175C722.482 381.441 724.191 381.631 731.531 381.631C741.087 381.631 746.529 380.428 753.996 376.817C767.665 370.103 777.347 352.748 781.397 327.411C783.232 316.39 783.548 312.336 783.991 298.781L784.371 286.809L792.091 282.566C802.027 276.991 805.95 274.078 808.165 270.531C810.38 267.11 810.57 263.31 808.798 259.763C808.102 258.432 807.089 254.695 806.52 251.402C804.115 237.72 799.938 223.341 795.445 213.65C794.116 210.8 789.75 203.389 785.763 197.181C776.271 182.423 774.499 178.749 770.766 166.144C765.766 149.549 750.199 105.907 744.124 91.5914C736.467 73.6658 726.659 56.9437 717.42 46.1123C712.99 40.9817 705.206 34.1408 698.941 29.8969C693.879 26.5398 670.275 15.0117 665.086 13.4282C657.998 11.2746 649.202 9.56435 641.482 8.8676C637.432 8.55089 630.851 7.91748 626.927 7.60077C623.004 7.22072 615.916 6.96736 611.234 6.96736C606.614 6.96736 600.349 6.71399 597.375 6.33394C594.401 6.01724 582.188 5.32048 570.164 4.75041C544.219 3.61027 529.601 2.72349 521.438 1.90005C510.11 0.759905 445.816 -0.253556 429.68 0.443199ZM481.254 4.4337C507.389 5.06712 521.438 5.70053 549.281 7.66411C559.216 8.36087 576.745 9.31099 588.199 9.81772C630.345 11.6546 644.52 12.7948 656.859 15.2017C663.757 16.5319 669.959 18.5588 671.414 19.9523C672.237 20.8391 672.173 20.9025 670.465 20.5857C669.389 20.4591 664.58 19.5723 659.707 18.7488C654.834 17.8621 647.43 16.7853 643.254 16.3419C633.382 15.2651 603.007 15.2651 594.211 16.3419C576.935 18.4321 559.09 22.486 549.345 26.5398L544.725 28.5034L542.447 26.5398C536.688 21.4725 526.753 19.699 504.035 19.6356C491.505 19.6356 471.762 18.8122 458.156 17.7354C453.79 17.3553 440.691 16.7853 429.047 16.4686C400.127 15.5818 364.563 13.9349 362.981 13.3015C361.969 12.9848 362.791 12.6047 366.272 11.7813C379.371 8.80426 395.634 6.71399 415.758 5.38382C440.564 3.80029 449.297 3.67361 481.254 4.4337ZM385.699 16.1519C398.609 16.6586 416.517 17.4187 425.566 17.7987C434.616 18.1788 444.994 18.7488 448.664 19.0656C452.334 19.3823 469.863 20.079 487.582 20.5857C520.045 21.5359 526.943 21.9793 533.777 23.7528C537.574 24.7663 541.624 26.8565 541.814 27.9333C541.814 28.25 541.877 28.7568 541.941 29.0735C542.004 29.4535 540.295 30.5937 538.207 31.7338C532.195 34.8375 524.665 40.0949 519.855 44.3387C517.451 46.4924 514.223 49.2794 512.768 50.4829L510.173 52.6365L468.788 50.0395C446.07 48.646 404.43 46.1123 376.207 44.3387C308.496 40.2216 313.369 40.6016 312.926 39.3981C312.483 38.258 312.23 38.5113 318.938 33.5707C326.025 28.3767 334.568 23.3728 342.478 19.8256C352.92 15.2017 354.945 14.5683 358.805 14.885C360.703 15.0117 372.853 15.5818 385.699 16.1519ZM650.848 19.5723C661.985 21.3458 671.224 22.8027 675.654 23.4361C690.715 25.463 712.167 42.5018 725.709 63.2145C735.328 77.9097 745.896 102.613 755.578 133.017C757.413 138.781 759.312 144.228 759.755 145.178C760.261 146.192 760.388 146.952 760.071 146.952C758.932 146.952 746.466 145.685 744.314 145.305L742.226 144.988L744.504 142.391C747.668 138.907 748.617 136.374 748.617 131.306C748.617 124.909 745.706 115.154 739.315 100.142C725.646 67.9651 710.079 48.7093 696.98 47.6325C693.879 47.3791 693.689 47.4425 692.55 49.3427C691.917 50.4195 691.221 51.3063 691.031 51.3063C690.841 51.3063 687.171 49.026 682.805 46.239C672.933 39.8415 666.415 36.7378 655.91 33.1907C639.584 27.7433 627.623 25.9064 609.082 25.9064C588.769 25.9064 573.391 28.5668 552.572 35.7243C534.347 42.0585 525.488 48.3293 518.084 60.3008C516.502 62.8344 511.502 73.2224 506.946 83.357C502.453 93.4916 496.695 106.16 494.163 111.544C491.695 116.928 487.392 126.302 484.734 132.383C482.013 138.464 477.963 147.648 475.685 152.716C473.407 157.783 471.319 162.724 471.066 163.674C470.433 166.144 467.079 167.601 460.688 168.044C457.713 168.234 452.018 168.995 448.031 169.755C444.045 170.451 432.654 172.478 422.719 174.188C342.415 188.124 294.448 202.249 258.757 222.391C252.555 225.875 246.607 228.979 245.468 229.295C244.266 229.676 240.722 229.929 237.558 229.929C234.267 229.929 230.47 230.309 228.572 230.879C220.282 233.349 213.701 242.217 212.815 252.288C212.435 255.835 212.309 256.089 208.069 260.206C200.791 267.364 192.185 277.942 186.68 286.619C181.554 294.727 172.758 312.336 172.758 314.553C172.695 315.25 172.315 316.453 171.809 317.34C170.796 319.113 170.48 322.407 171.429 321.457C171.745 321.077 173.454 317.15 175.226 312.716C181.174 297.831 185.161 290.61 194.4 278.195C200.159 270.467 210.853 258.432 211.992 258.432C212.245 258.432 212.625 259.763 212.815 261.41C213.005 263.12 213.891 266.223 214.777 268.377C215.663 270.594 216.422 272.431 216.422 272.621C216.422 272.748 215.599 273.191 214.587 273.634C213.574 274.014 211.992 275.155 211.043 276.168C208.828 278.512 208.638 283.199 210.663 286.493C211.359 287.696 211.992 289.09 211.992 289.596C211.992 290.103 209.651 293.904 206.803 298.084C195.855 314.046 188.198 329.185 182.44 346.16C179.845 353.825 177.82 361.616 177.82 363.832C177.82 368.646 174.846 362.819 172.062 352.621C170.986 348.757 169.72 344.07 169.214 342.233C168.265 338.813 165.987 336.342 163.772 336.342C161.747 336.342 159.785 339.003 157.507 344.893L155.355 350.594V372.637C155.355 384.735 155.166 394.616 154.913 394.616C154.659 394.616 153.077 394.363 151.432 393.983C149.787 393.666 141.56 392.526 133.207 391.449C94.0359 386.509 68.0906 380.491 46.5117 371.243C37.9688 367.57 32.7797 364.846 32.4633 363.832C32.3367 363.452 32.9695 362.819 33.8555 362.439C36.1336 361.362 47.5242 359.145 50.5617 359.145C52.0172 359.145 53.1563 358.892 53.1563 358.512C53.1563 358.195 51.3211 355.281 49.1063 352.051C31.5141 326.714 28.0336 320.76 26.5148 313.729C25.882 310.626 25.9453 310.119 26.8313 309.612C28.35 308.789 30.3117 304.482 31.0711 300.491C32.2102 294.284 29.8055 283.769 27.0844 283.262C26.5148 283.136 24.8063 284.276 23.2875 285.796L20.5664 288.52L20.3766 283.262C19.9969 273.001 22.5281 263.436 28.1602 254.062L30.9445 249.311L36.8297 249.501C44.2336 249.691 49.9289 248.425 56.7633 245.067C63.4078 241.774 69.293 236.453 72.1406 231.069C74.0391 227.522 74.2922 226.508 74.2922 222.011C74.3555 219.224 74.2289 216.12 74.0391 215.107C73.7227 213.333 73.7227 213.333 82.2656 210.293C90.1758 207.506 99.4781 205.352 101.187 205.923C101.566 206.049 98.1492 211.433 93.593 217.894C76.8234 241.394 71.0648 251.275 67.4578 262.74C63.5977 275.155 62.0789 283.326 60.75 299.414C58.9781 320.887 58.9148 320.57 62.0156 323.927C66.9516 329.311 74.3555 332.098 90.4922 334.759C95.8711 335.646 105.616 337.799 112.071 339.509C132.384 344.957 141.117 345.653 147.888 342.296C154.216 339.256 157.127 333.999 161.684 317.657C163.329 311.703 165.354 305.368 166.177 303.468C167.695 300.111 167.695 300.111 166.493 297.387C163.962 291.687 156.495 285.289 146.306 280.095C138.523 276.105 131.562 273.571 120.804 270.784C106.439 267.047 101.82 266.35 91.4414 266.35C81.443 266.35 78.0258 266.92 71.3813 269.581C66.9516 271.417 67.0781 271.417 67.0781 269.644C67.0781 262.17 75.6211 245.384 88.5305 227.395C92.2008 222.328 96.8203 215.74 98.782 212.7C100.807 209.723 103.402 206.556 104.541 205.732C105.68 204.909 110.489 201.299 115.172 197.815C127.765 188.44 141.813 179.763 142.826 180.713C142.952 180.903 138.586 184.957 133.08 189.77C112.894 207.379 99.5414 222.011 90.8086 235.946C86.1258 243.357 80.8102 254.252 81.1266 255.709C81.3164 256.406 83.1516 253.365 85.9992 247.728C91.6313 236.58 97.643 227.522 105.047 218.971C112.261 210.61 117.45 205.606 134.663 190.151C148.205 178.052 149.154 177.292 156.811 173.365C172.441 165.384 184.402 161.584 210.916 156.136C229.521 152.336 239.963 149.739 245.658 147.585C250.53 145.748 255.656 140.238 261.225 130.61C268.376 118.448 286.221 87.2208 292.676 75.6927C294.827 71.8289 299.573 64.0379 303.244 58.2738C306.914 52.5098 310.521 46.6824 311.28 45.2889L312.673 42.7552L320.393 43.2619C421.327 49.6594 507.959 55.1068 509.414 55.1068C510.87 55.1068 512.578 53.9666 517.008 49.8494C530.55 37.6246 544.472 29.8969 562.254 24.7663C571.873 22.0426 587.82 19.2556 600.539 18.1154C602.121 17.9888 612.373 17.9888 623.32 18.1154C639.33 18.2421 644.709 18.5588 650.848 19.5723ZM633.129 29.7702C642.115 31.2904 652.113 33.9508 660.53 37.1178C668.63 40.1582 671.414 41.6151 681.413 48.0125L689.829 53.3332L689.386 59.224C688.816 67.395 690.525 74.1725 697.296 90.1979C701.283 99.6357 705.396 113.191 706.852 121.615C709.699 138.591 711.977 142.264 721.343 145.368C726.342 147.015 727.102 147.078 733.683 146.698C739.188 146.382 742.922 146.572 750.959 147.648L761.21 149.042L762.792 153.032C763.741 155.313 765.703 161.584 767.285 167.031C770.956 179.699 773.487 184.957 782.03 198.068C785.827 203.896 790.256 211.243 791.775 214.41C796.078 222.961 799.748 235.06 802.723 250.515L804.178 258.116L802.533 259.953C798.23 264.513 785.447 272.114 773.234 277.372C761.02 282.566 747.984 286.049 732.164 288.203C720.014 289.85 715.141 290.737 714.698 291.433C714.256 292.193 716.027 292.13 725.836 290.99C756.591 287.443 783.359 277.498 801.014 263.12C802.913 261.536 804.811 260.396 805.191 260.523C805.57 260.649 806.14 261.79 806.456 263.12C806.963 265.02 806.836 265.907 805.887 267.744C803.229 272.621 789.434 281.045 772.284 288.203C766.716 290.547 749.377 295.741 742.606 297.134C729.506 299.794 721.976 300.808 711.788 301.188L700.523 301.568L700.84 290.927C701.663 265.907 702.991 250.198 705.649 234.363C707.295 224.482 710.269 211.307 712.041 205.859C716.217 192.874 725.646 180.333 734.379 176.025C737.733 174.379 739.441 173.998 743.998 173.745C750.832 173.302 755.072 174.315 763.552 178.306C770.386 181.473 770.133 181.409 770.133 180.523C770.133 180.206 768.931 179.129 767.475 178.179C765.956 177.229 762.286 174.125 759.312 171.275C755.009 167.158 752.604 165.447 747.921 163.167C737.416 158.1 724.001 155.376 713.053 156.136L706.978 156.58L706.598 152.906C704.637 134.347 700.903 115.788 697.359 106.73C696.41 104.26 695.018 100.269 694.195 97.8622C691.538 89.6278 683.374 74.8059 679.008 70.2454C677.616 68.7885 676.35 67.0783 676.097 66.3815C675.907 65.6848 675.021 64.8613 674.198 64.4813C673.376 64.1012 672.68 63.4678 672.68 63.1511C672.68 62.391 670.148 59.5407 669.452 59.5407C669.199 59.5407 668.06 58.5906 666.858 57.4504C658.821 49.9128 648.316 44.1487 635.66 40.4749C629.332 38.638 627.75 38.448 617.562 38.1946L606.488 37.8779L606.677 39.9682C606.804 41.1717 607.437 50.1028 608.133 59.8574C608.829 69.6119 610.854 97.0387 612.563 120.792C614.334 144.545 615.727 164.117 615.727 164.307C615.727 164.497 615.03 164.687 614.208 164.687C612.816 164.687 612.689 164.371 612.309 159.747C612.12 157.086 611.487 149.865 610.98 143.785C609.398 124.276 608.702 115.218 608.133 105.653C607.88 100.523 607.5 96.0886 607.31 95.8353C607.12 95.5186 606.614 88.9311 606.234 81.2034C605.855 73.4758 605.285 65.8115 604.969 64.1646C604.652 62.4544 604.02 56.3736 603.64 50.5462C603.197 44.6555 602.627 39.5248 602.374 39.1448C601.995 38.5113 598.388 38.3213 587.756 38.3213C572.885 38.3213 571.683 38.5113 561.621 41.9318C552.445 45.0988 538.777 53.1432 531.12 59.8574C524.348 65.8115 516.628 76.6428 508.591 91.528C495.239 116.295 479.672 161.14 473.85 191.607C472.584 198.448 472.395 201.109 472.395 217.894C472.395 228.345 472.901 244.561 473.47 254.632C474.103 264.577 475.052 282.819 475.559 295.17C476.698 321.204 477.647 336.152 478.153 337.863C478.47 338.876 479.039 339.003 482.773 338.749C485.051 338.559 495.809 336.279 506.566 333.619C539.599 325.574 557.951 321.14 569.215 318.607C575.163 317.277 584.655 314.996 590.414 313.603C596.173 312.273 604.273 310.372 608.449 309.422C612.626 308.472 617.055 307.269 618.321 306.762C622.245 305.242 622.371 303.975 620.852 282.819C619.017 257.482 616.676 223.848 614.777 196.358C613.955 183.626 613.069 171.908 612.942 170.325C612.689 167.601 612.752 167.348 614.145 167.031C616.106 166.714 615.916 165.384 617.941 193.191C618.891 205.542 620.726 230.372 622.055 248.298C623.447 266.223 624.902 285.669 625.282 291.56C625.788 298.528 626.295 302.075 626.738 301.948C627.56 301.695 627.37 292.573 626.421 286.619C626.105 284.529 625.852 280.982 625.852 278.702C625.852 276.421 625.282 269.137 624.586 262.55C623.89 255.899 623.067 244.371 622.688 236.896C622.371 229.422 621.802 221.061 621.422 218.337C621.105 215.614 620.346 207.189 619.84 199.652C619.334 192.114 618.574 182.613 618.258 178.622C617.941 174.632 617.625 170.325 617.625 169.058V166.778L622.245 166.398C624.713 166.144 643.823 164.434 664.643 162.47C685.399 160.57 703.118 158.987 704.004 158.987C705.523 158.987 705.586 159.113 705.586 163.61C705.586 168.044 705.523 168.298 703.624 169.691C701.852 171.021 701.599 171.021 700.207 170.135C697.676 168.488 697.549 166.334 699.891 163.42C702.232 160.507 701.093 159.873 698.372 162.534C696.031 164.877 695.967 167.854 698.119 170.198C700.144 172.352 702.295 172.605 704.194 170.895L705.776 169.438L705.333 186.223C704.827 205.606 704.131 216.31 702.359 229.612C701.726 234.806 700.84 243.674 700.46 249.248C700.144 254.822 699.384 264.957 698.878 271.734C697.802 286.936 697.802 286.303 699.005 286.303C701.283 286.303 699.258 287.76 696.663 288.013C691.664 288.456 684.26 290.103 666.541 294.917C657.049 297.514 644.646 300.744 639.014 302.201C633.382 303.595 628.256 304.988 627.623 305.368C626.231 306.128 626.105 309.232 627.37 310.309C628.066 310.942 629.269 310.816 632.623 309.802C638.571 308.092 651.038 304.798 675.084 298.654C688.753 295.17 696.157 293.017 697.423 292.067L699.258 290.673V296.311V301.948L695.334 302.771C693.246 303.151 687.298 304.798 682.235 306.319C677.173 307.839 668.63 310.309 663.188 311.703C657.809 313.096 648.38 315.63 642.305 317.34C636.23 319.05 618.005 323.864 601.805 328.045C557.445 339.573 539.979 344.197 520.488 349.454C510.743 352.051 498.593 355.281 493.467 356.612L484.102 359.019L480.684 355.155C478.786 353.001 477.267 351.164 477.33 351.164C477.9 350.721 540.802 335.519 578.074 326.778C610.284 319.24 623.447 315.946 626.674 314.553C632.18 312.146 624.966 313.666 589.781 322.407C581.618 324.434 563.963 328.741 550.547 331.908C537.131 335.075 519.792 339.193 511.945 341.093C504.098 342.993 493.467 345.527 488.215 346.73C483.026 347.934 478.09 349.137 477.394 349.327C476.191 349.707 475.559 348.947 472.584 344.133C467.838 336.532 461.573 324.814 452.904 307.522C448.917 299.478 444.171 290.8 442.463 288.203C433.983 275.155 423.795 266.794 411.645 262.74C407.784 261.473 405.949 261.283 397.723 261.283C387.281 261.283 385.13 261.726 376.84 265.843C370.448 269.01 364.943 273.128 358.805 279.335C348.427 289.913 331.088 319.937 321.469 343.943C314.128 362.502 308.749 372.13 301.535 379.921C293.752 388.346 285.335 393.54 276.982 394.996C274.008 395.503 270.401 396.327 268.945 396.833C267.49 397.34 264.516 398.1 262.301 398.48C258.63 399.114 257.491 398.987 248.252 396.897C239.773 394.996 205.284 389.739 193.451 388.536C190.034 388.219 189.78 388.029 188.641 385.812C187.945 384.545 185.667 381.188 183.516 378.338C181.427 375.487 179.402 372.32 179.086 371.243C177.63 366.176 183.136 346.16 190.603 329.058C194.084 321.204 198.134 314.11 206.297 301.821C210.094 296.057 213.448 290.61 213.638 289.723C214.017 288.266 214.207 288.203 219.839 288.203C225.281 288.203 227.18 287.696 227.18 286.176C227.18 285.289 218.763 285.669 216.105 286.619C213.638 287.569 213.511 287.506 212.119 285.923C210.41 283.959 210.22 279.715 211.739 278.005C213.195 276.358 220.029 277.055 224.585 279.208C229.648 281.615 233.951 281.742 241.545 279.652C244.962 278.702 249.771 276.928 252.302 275.788C260.782 271.797 267.806 262.74 268.755 254.632C269.009 252.415 269.641 250.768 270.464 249.881C271.856 248.488 280.652 245.447 294.574 241.647C312.103 236.833 325.835 235.313 346.085 235.82C370.638 236.453 387.788 240.507 407.468 250.135C413.859 253.238 416.96 254.189 416.011 252.668C414.745 250.641 393.166 241.774 382.219 238.86C351.844 230.689 313.748 232.653 280.02 244.181C274.451 246.081 269.705 247.664 269.452 247.664C269.135 247.664 268.945 247.094 268.945 246.461C268.945 245.511 272.173 243.674 283.69 237.973C327.734 216.12 366.968 202.755 423.035 190.404C441.577 186.287 453.663 184.07 454.233 184.64C454.866 185.273 451.512 194.331 445.69 207.759C431.388 240.76 426.516 252.288 426.516 253.429C426.516 255.709 427.655 254.632 428.73 251.275C429.3 249.501 432.591 241.71 436.008 234.046C439.362 226.382 444.804 213.713 447.968 205.923C454.423 190.151 456.891 184.893 460.688 178.306C463.788 173.048 465.75 170.831 469.484 168.424C472.141 166.714 472.458 166.081 478.09 153.159C481.254 145.748 485.937 135.234 488.341 129.85C490.809 124.466 494.859 115.218 497.391 109.264C499.922 103.373 503.402 95.5186 505.111 91.8448C506.883 88.171 510.68 80.1266 513.591 73.9192C519.476 61.2509 522.703 56.3103 528.652 50.8629C539.663 40.7916 567.506 31.3538 594.527 28.5668C603.703 27.6166 624.333 28.25 633.129 29.7702ZM596.805 39.6515L601.488 40.0949L602.944 59.1606C603.766 69.6119 605.791 96.152 607.5 118.131C611.487 168.868 611.297 165.004 609.715 165.131C609.019 165.194 604.209 165.701 598.957 166.207C571.303 169.121 528.905 173.365 513.844 174.759C505.997 175.455 495.809 176.279 491.189 176.595C482.899 177.166 480.558 177.862 482.013 179.319C482.52 179.826 484.355 179.826 488.595 179.319C491.885 178.939 500.555 178.179 507.832 177.672C515.173 177.102 526.12 176.089 532.195 175.455C538.27 174.759 547.13 173.935 551.813 173.555C556.495 173.175 570.354 171.718 582.504 170.388C594.717 168.995 606.108 167.728 607.88 167.538L611.17 167.221L611.55 174.062C612.12 183.246 616.359 240.444 617.625 256.849C618.005 261.346 618.574 270.467 618.954 277.118C619.27 283.706 619.713 291.623 619.966 294.727C620.22 299.098 620.093 300.871 619.207 303.088C618.638 304.672 618.005 305.938 617.752 305.938C617.562 305.938 602.121 309.549 583.453 313.919C471.509 340.206 480.558 338.116 479.735 337.292C479.419 336.912 478.849 328.425 478.47 318.353C478.027 308.282 477.33 293.714 476.824 286.049C476.318 278.322 475.622 262.233 475.242 250.198C474.926 238.163 474.293 223.658 473.913 217.894C472.838 201.235 474.799 189.074 482.836 162.47C488.784 142.645 501.124 109.01 505.934 99.4457C509.351 92.6049 519.539 75.6927 522.893 71.1955C529.284 62.7711 540.928 53.0799 550.23 48.5193C566.367 40.6016 579.15 38.1946 596.805 39.6515ZM634.648 41.425C656.543 47.5058 676.92 65.2414 688.12 87.7276C693.879 99.319 698.625 114.394 702.106 132.32C703.624 140.238 705.713 155.883 705.333 156.263C705.206 156.39 692.803 157.593 677.679 158.987C662.555 160.38 642.811 162.217 633.762 163.104C624.713 163.927 617.309 164.561 617.245 164.497C617.055 164.244 615.347 140.301 615.473 140.048C615.6 139.921 615.853 140.681 616.043 141.631C617.941 150.055 620.22 153.856 624.27 155.186C625.978 155.756 627.623 155.693 631.99 154.869C642.874 152.906 657.998 151.322 671.541 150.752C679.071 150.435 686.602 149.802 688.247 149.422C692.297 148.409 696.157 144.545 697.739 139.921C699.258 135.487 699.258 127.443 697.739 120.665C695.524 111.101 686.855 91.0847 681.096 82.4702C676.983 76.2628 667.427 66.0015 660.783 60.7442C647.43 50.0395 627.813 41.9951 618.638 43.3253C614.967 43.8954 611.55 46.6824 610.664 49.9128C610.348 51.1796 609.968 55.1068 609.968 58.5906L609.841 64.9247L609.082 55.4235C608.639 50.1662 608.196 44.4021 608.196 42.5018L608.133 39.0814L618.448 39.4615C626.864 39.7148 629.775 40.0949 634.648 41.425ZM629.902 46.239C646.861 50.5462 667.807 65.8115 678.881 81.9002C684.387 89.8812 693.942 110.847 692.107 110.847C691.348 110.91 614.841 104.386 614.651 104.26C614.208 103.943 611.297 56.5003 611.55 53.9666C612.056 49.7228 613.322 47.1891 615.6 45.9856C618.005 44.6555 624.143 44.7188 629.902 46.239ZM703.055 50.7996C711.661 55.1068 722.356 68.3451 730.835 85.4473C747.415 118.575 750.895 133.903 743.745 141.378C742.163 143.025 742.036 143.088 733.999 143.025L725.836 142.961V141.251C725.836 136.31 720.773 125.352 715.964 119.842C713.243 116.738 709.256 114.014 707.358 114.014C706.852 114.014 706.029 111.861 705.206 108.44C704.447 105.4 701.409 96.7854 698.435 89.2478C695.398 81.7735 692.487 73.7925 691.917 71.5755C690.462 65.9381 690.905 55.9302 692.74 51.7497C694.069 48.9627 694.259 48.7726 696.6 48.7726C698.119 48.7726 700.65 49.5327 703.055 50.7996ZM610.474 70.4354C610.348 71.2588 610.221 70.7521 610.221 69.3586C610.158 67.9651 610.284 67.3317 610.474 67.9017C610.601 68.5351 610.601 69.6753 610.474 70.4354ZM611.107 80.2533C610.98 81.2668 610.854 80.57 610.854 78.8598C610.854 77.0862 610.98 76.3261 611.107 77.0862C611.234 77.9097 611.234 79.3032 611.107 80.2533ZM613.448 106.097C613.638 109.897 613.702 112.747 613.512 112.431C613.132 111.544 611.297 87.6009 611.36 84.5605C611.487 81.3934 612.942 96.722 613.448 106.097ZM654.961 109.897C674.262 111.481 690.968 112.874 691.981 113.064C693.752 113.381 694.006 113.761 695.334 118.321C699.131 131.18 698.182 139.731 692.423 145.242C689.956 147.585 687.741 148.029 675.211 148.852C659.264 149.865 638.698 151.956 633.762 152.969C628.003 154.173 624.902 154.173 622.941 152.842C620.663 151.386 618.384 146.445 617.625 141.441C617.055 137.641 614.461 109.264 614.461 107.237C614.461 106.667 615.284 106.54 617.182 106.73C618.638 106.92 635.66 108.377 654.961 109.897ZM711.598 117.941C717.799 122.059 724.57 134.157 724.57 141.251C724.57 144.228 723.811 144.671 720.394 143.848C713.876 142.201 711.598 138.654 709.383 126.682C708.687 122.692 707.801 118.638 707.484 117.625C706.725 115.281 707.738 115.408 711.598 117.941ZM734.885 144.861C734.063 144.988 732.67 144.988 731.721 144.861C730.709 144.735 731.405 144.608 733.113 144.608C734.885 144.608 735.645 144.735 734.885 144.861ZM735.645 160.823C742.606 162.66 751.655 167.221 755.325 170.768C757.92 173.175 758.173 173.618 756.844 173.302C746.909 170.958 740.644 171.401 733.493 174.885C728.177 177.482 720.71 184.83 716.977 191.164C712.294 199.082 706.219 218.591 704.131 232.463C703.624 235.756 703.181 237.466 703.118 236.263C703.118 235.06 703.371 232.209 703.688 229.929C705.27 218.781 707.864 171.465 707.295 163.801L706.852 158.86L718.748 159.177C728.114 159.43 731.658 159.747 735.645 160.823ZM462.333 172.098C461.067 173.808 459.105 176.659 458.03 178.432C456.321 181.219 455.562 181.853 453.727 182.17C431.958 185.907 400.76 192.874 378.802 198.892C369.499 201.489 336.973 212.257 326.531 216.247C313.812 221.124 297.169 228.599 282.93 235.82L268.059 243.294L264.516 239.493C260.972 235.82 257.681 233.793 251.733 231.512C250.024 230.879 248.695 230.246 248.695 229.992C248.695 229.612 255.846 225.685 269.768 218.401C285.525 210.103 320.077 197.878 347.098 190.974C362.222 187.11 405.19 178.369 421.77 175.772C425.25 175.202 433.223 173.808 439.488 172.605C452.145 170.135 457.777 169.311 461.827 169.185L464.611 169.121L462.333 172.098ZM58.0289 207.063C59.6742 207.759 63.218 209.406 65.8125 210.736C71.8242 213.84 72.9633 215.677 72.5836 221.758C71.8875 232.336 63.5344 241.077 49.6125 245.701C44.107 247.538 42.7781 247.728 37.8422 247.538C31.6406 247.348 31.1977 247.031 27.5906 241.014C23.857 234.806 22.9711 222.835 25.7555 216.564C28.35 210.736 33.7922 206.936 40.5633 206.113C43.9805 205.732 44.0438 205.732 46.3852 208.329C49.1695 211.37 52.0172 216.881 53.4727 222.011C54.4219 225.242 54.4852 226.255 53.7891 230.372C52.9031 235.376 53.1563 236.643 54.5484 234.236C55.8773 231.956 55.6242 222.075 54.1688 218.274C53.2195 215.74 50.1188 211.117 45.9422 205.923C44.9297 204.592 54.0422 205.479 58.0289 207.063ZM241.481 235.376C248.063 242.217 250.973 251.655 249.391 261.029C247.999 269.771 244.202 275.598 238.444 278.068C229.901 281.742 218.953 275.978 215.409 266.033C212.055 256.469 214.777 243.611 221.548 236.833C225.155 233.223 228.445 231.829 233.698 231.829H238.064L241.481 235.376ZM250.088 232.969C255.15 234.426 259.896 237.34 263.123 241.077C267.553 246.018 268.249 254.252 264.832 260.966C262.617 265.337 257.365 270.847 253.695 272.748C250.657 274.268 244.266 276.801 244.266 276.485C244.266 276.421 245.278 274.648 246.48 272.621C249.518 267.617 250.657 263.626 251.037 257.166C251.606 248.044 249.265 241.647 243.063 234.996L240.089 231.829H243C244.582 231.829 247.746 232.336 250.088 232.969ZM406.898 265.717C419.681 268.314 430.186 275.978 439.172 289.28C441.007 292.003 446.449 302.265 451.259 312.083C465.117 340.143 471.066 350.214 478.659 358.322C480.684 360.539 483.026 362.502 483.785 362.692C484.608 362.882 487.202 362.376 489.734 361.425L494.227 359.779V362.502C494.227 366.113 490.809 376.247 489.101 377.641C488.278 378.338 486.696 378.781 485.051 378.781C482.077 378.781 480.115 377.578 473.534 371.623C471.319 369.66 468.977 367.76 468.218 367.38C466.952 366.683 466.699 366.746 462.839 369.597C461.51 370.547 456.701 365.416 446.576 352.178C441.197 345.21 434.236 337.039 429.3 331.972C424.68 327.348 420.63 322.787 420.188 321.9C419.808 321.014 418.669 319.24 417.656 317.91C415.821 315.63 415.758 315.566 415.821 307.142C415.821 300.491 415.505 297.641 414.555 294.094C411.771 284.276 407.025 276.231 400.001 269.517C397.533 267.11 395.508 264.957 395.508 264.703C395.508 264.07 401.52 264.64 406.898 265.717ZM393.546 265.717C394.559 266.223 396.963 268.44 398.988 270.594C409.113 281.805 414.555 294.6 414.429 307.079C414.366 314.553 414.113 314.806 410.379 311.513C403.671 305.558 395.761 301.315 386.965 298.844C382.662 297.641 380.257 297.451 370.512 297.451C360.766 297.451 358.362 297.641 353.805 298.844C350.831 299.604 348.363 300.111 348.237 300.048C347.794 299.604 357.096 286.049 359.88 283.009C364.12 278.448 374.625 270.847 380.637 267.934C387.471 264.64 390.509 264.133 393.546 265.717ZM102.516 268.884C127.828 272.494 155.482 284.529 163.329 295.36C165.544 298.464 165.544 299.794 163.076 305.622C162.19 307.712 160.228 313.856 158.773 319.24C155.735 330.452 154.027 334.569 151.116 337.482C147.762 340.966 145.863 341.663 138.902 341.916C131.752 342.17 126.626 341.283 111.691 337.102C106.819 335.709 98.6555 333.935 93.6563 333.175C73.0898 330.008 63.7242 326.018 61.7625 319.494C61.5094 318.733 61.6359 315.63 62.0156 312.526C62.3953 309.422 62.9648 302.201 63.2813 296.437C63.5977 290.673 64.2938 283.706 64.8 280.919C65.9391 274.965 67.3313 273.318 73.1531 271.101C81.3797 267.997 90.9984 267.237 102.516 268.884ZM219.586 275.218C220.282 276.041 219.902 276.168 217.055 276.168C214.207 276.168 213.827 276.041 214.523 275.218C214.966 274.711 216.105 274.268 217.055 274.268C218.004 274.268 219.143 274.711 219.586 275.218ZM26.768 288.583C27.4641 291.053 26.8313 299.098 25.6289 301.885C24.8063 303.912 24.4898 304.102 22.9711 303.722C19.6805 302.898 19.4273 302.328 19.807 296.564C20.1234 291.433 20.1867 291.18 22.5281 288.773C23.857 287.379 25.2492 286.366 25.5656 286.493C25.882 286.619 26.4516 287.569 26.768 288.583ZM782.789 295.614C782.789 304.672 781.966 315.186 780.511 324.497C776.714 349.454 768.424 365.859 755.388 374.41C750.452 377.578 745.137 379.288 737.416 380.175C720.077 382.075 708.623 375.931 700.587 360.412C695.651 350.847 692.866 340.966 689.766 322.154C688.69 315.503 687.741 309.866 687.677 309.549C687.614 309.169 690.145 308.219 693.246 307.395C698.878 305.938 711.598 304.735 722.166 304.672H726.975L727.228 320.634C727.545 335.836 727.608 336.976 729.253 342.36C731.341 349.264 733.43 353.191 736.72 356.485C740.011 359.842 742.859 361.109 747.668 361.552C753.996 362.059 757.54 360.539 762.856 355.091C770.386 347.427 774.689 337.356 778.486 318.923C780.258 310.182 780.384 308.789 780.005 300.871C779.815 296.184 779.435 291.56 779.245 290.61C778.929 289.153 779.119 288.773 780.321 288.266C781.144 287.95 782.03 287.633 782.346 287.633C782.599 287.569 782.789 291.18 782.789 295.614ZM695.461 290.737C693.942 291.75 685.463 294.22 669.516 298.274C649.772 303.278 633.445 307.649 631.294 308.472C629.332 309.169 628.383 308.852 628.383 307.459C628.383 306.952 629.016 306.572 629.838 306.572C631.357 306.509 635.977 305.305 661.922 298.211C676.666 294.157 685.589 291.877 691.981 290.483C692.677 290.357 693.942 290.23 694.828 290.166C696.094 290.166 696.22 290.23 695.461 290.737ZM29.6789 296.121C29.6789 297.831 29.4258 300.554 29.0461 302.075C28.4133 304.925 26.325 308.472 25.2492 308.472C24.4266 308.472 24.5531 306.128 25.3758 305.558C27.0211 304.545 28.4766 299.858 28.4766 295.17C28.6031 289.786 29.6156 290.673 29.6789 296.121ZM777.031 298.021C777.347 306.192 774.436 324.688 771.272 334.442C768.171 344.133 762.096 353.064 756.338 356.485C753.87 357.878 752.604 358.195 749.123 358.195C743.745 358.195 742.163 357.055 746.149 355.978C753.237 354.078 760.704 347.554 766.02 338.433C771.905 328.298 773.74 320.57 774.373 302.898C774.752 291.687 774.879 290.737 775.765 291.687C776.461 292.383 776.841 294.22 777.031 298.021ZM772.917 293.017C773.55 294.6 773.36 305.812 772.601 311.956C770.766 327.158 765.64 339.066 757.54 347.11C752.92 351.734 747.731 354.585 742.985 355.155C740.074 355.471 739.948 355.408 737.733 352.811C732.417 346.667 730.266 336.279 730.266 317.023V303.595L733.873 302.835C735.834 302.455 737.543 302.265 737.733 302.455C737.859 302.581 737.67 306.382 737.227 310.816C736.341 320.064 736.91 326.208 739.188 332.288C741.656 338.876 747.731 343.88 753.237 343.943C755.325 343.943 756.148 343.5 758.995 340.586C766.083 333.492 769.057 326.778 770.196 315.186C770.639 310.246 770.576 307.142 769.88 301.505C768.931 294.347 768.931 294.22 770.259 293.08C771.841 291.75 772.411 291.75 772.917 293.017ZM767.222 296.881C767.412 298.211 767.791 302.391 767.981 306.255C768.741 319.303 765.387 331.085 759.248 336.976C754.629 341.536 754.249 341.663 750.389 340.46C744.314 338.496 741.277 334.062 739.695 325.258C738.809 320.127 739.378 305.305 740.581 302.835C741.213 301.568 742.352 301.061 747.035 299.858C750.199 299.098 755.705 297.577 759.375 296.501C763.045 295.487 766.209 294.6 766.399 294.6C766.652 294.537 766.969 295.614 767.222 296.881ZM383.295 301.758C392.597 303.722 400.95 307.775 406.709 313.096C412.341 318.29 418.985 327.981 422.466 336.089C429.743 353.001 431.135 359.525 431.009 376.247C430.819 403.167 426.199 426.35 417.34 445.099C409.683 461.315 397.47 474.236 383.105 481.331C372.727 486.461 365.133 488.045 354.059 487.538C329.063 486.398 304.763 469.486 291.916 444.276C285.335 431.418 282.804 421.156 282.804 407.221C282.804 402.407 282.93 398.163 283.12 397.91C283.31 397.593 285.778 396.01 288.626 394.3C297.865 388.852 304.952 382.518 310.015 375.107C314.002 369.407 322.481 351.608 329.379 334.759C331.341 329.945 333.998 323.991 335.201 321.52C338.555 314.806 344.187 306.002 345.705 304.988C347.477 303.912 356.02 301.695 361.716 300.935C367.348 300.111 377.536 300.554 383.295 301.758ZM22.0219 308.789C22.718 309.612 24.0469 312.843 24.9961 315.883C27.4641 323.801 29.932 328.361 38.032 339.826C48.7266 355.028 49.4227 356.105 49.1695 356.865C49.043 357.245 46.7016 357.752 43.9172 357.942C32.6531 358.765 25.9453 363.072 25.9453 369.407C25.9453 374.854 26.5781 376.121 29.9953 378.084C34.4883 380.618 47.9039 386.445 54.7383 388.789C75.6211 395.947 104.288 401.964 135.295 405.701C139.915 406.208 146.053 407.095 148.901 407.601C151.748 408.108 154.28 408.551 154.596 408.551C154.849 408.551 155.039 409.375 155.039 410.388V412.289L150.166 412.099C147.445 411.972 139.092 410.832 131.625 409.565C124.158 408.361 112.198 406.398 105.047 405.321C88.7203 402.914 76.0008 400.254 66.6352 397.403C57.3328 394.616 53.093 392.779 45.5625 388.536C42.2719 386.699 36.5766 384.038 32.9063 382.708C29.2359 381.315 25.0594 379.604 23.6039 378.844L20.9461 377.514V354.268C20.8828 332.162 20.5031 325.068 19.0477 318.543C17.8453 313.476 18.4781 307.205 20.1867 307.205C20.5031 307.205 21.3258 307.902 22.0219 308.789ZM18.5414 352.368C18.4781 365.226 18.2883 375.867 18.1617 376.057C17.3391 376.881 15.1242 374.664 14.4281 372.384C13.6055 369.533 12.0234 367.886 7.27734 364.719L4.11328 362.629L4.36641 355.661C4.49297 351.798 4.80938 348.06 5.12578 347.237C5.75859 345.653 9.1125 343.943 11.6438 343.943C12.4664 343.943 13.4156 343.437 13.6688 342.803C13.9852 342.233 14.175 336.469 14.2383 330.008C14.2383 321.014 14.4281 317.91 15.1242 316.707C16.0102 315.186 16.1367 315.44 17.3391 322.091C18.4781 328.361 18.6047 331.465 18.5414 352.368ZM429.427 333.935C434.869 339.699 443.285 349.961 449.993 358.955L455.055 365.796L453.157 366.303C452.081 366.556 447.588 366.683 443.159 366.619L435.122 366.429L434.363 361.869C433.287 355.471 430.059 344.957 427.402 339.129C426.136 336.342 424.554 332.732 423.921 331.085C422.782 328.235 422.782 328.108 423.858 328.678C424.491 328.995 426.959 331.402 429.427 333.935ZM166.683 339.636C167.189 340.46 168.202 343.627 168.961 346.794C170.606 353.951 171.745 357.625 174.15 363.262C177.757 371.56 180.415 376.564 182.883 379.478C185.92 383.088 187.945 386.382 187.945 387.775C187.945 388.472 187.186 388.916 185.477 389.232C181.301 389.929 175.795 392.969 172.821 396.2L170.037 399.24L170.48 407.665L170.923 416.152H168.645H166.43V402.344C166.366 390.563 165.544 371.687 164.215 352.494C163.645 344.64 163.329 343.437 162 342.993C160.608 342.55 160.291 340.206 161.494 339.003C162.759 337.736 165.67 338.116 166.683 339.636ZM161.367 348.504C161.367 350.341 161.81 356.295 162.253 361.679C162.759 367.063 163.329 380.491 163.582 391.449C163.772 402.407 164.088 412.479 164.278 413.809L164.658 416.216L160.924 416.026L157.254 415.836L157.444 412.162C157.697 407.348 156.748 406.208 151.938 405.701C140.168 404.434 101.123 398.29 89.2266 395.82C69.2297 391.766 52.0805 386.255 36.3867 378.781L28.4766 375.044V372.51C28.4766 370.673 28.7297 369.913 29.4258 369.913C31.3242 369.913 38.0953 372.827 51.0047 379.161C71.4445 389.232 79.2914 391.449 103.845 394.236C111.312 395.123 122.07 396.517 127.828 397.403C143.269 399.684 156.305 400.697 157.001 399.62C158.646 396.96 158.899 391.703 158.203 375.234C157.507 358.702 157.507 358.385 158.963 351.861C159.722 348.187 160.608 345.21 160.861 345.21C161.177 345.21 161.367 346.73 161.367 348.504ZM8.1 367.38C12.0234 369.913 13.2891 371.687 10.6313 370.8C8.79609 370.23 6.45469 368.583 4.49297 366.493C2.27813 364.149 3.60703 364.466 8.1 367.38ZM43.4742 371.117C59.5477 378.338 76.0008 383.468 94.2891 386.952C101.756 388.346 144.091 394.933 150.863 395.693C153.71 396.01 155.355 396.517 155.545 397.087C155.925 398.29 147.319 397.72 135.865 395.883C131.435 395.186 124.158 394.3 119.728 393.92C108.211 392.969 85.493 389.676 78.6586 387.966C70.9383 386.002 63.2813 382.898 50.625 376.564C44.8664 373.714 37.7156 370.42 34.6781 369.28C31.3875 368.076 29.1094 366.873 29.1094 366.366C29.1094 365.859 29.4891 365.479 29.9953 365.479C30.4383 365.479 36.5133 368.013 43.4742 371.117ZM196.488 390.879C198.956 391.196 206.044 392.083 212.309 392.716C226.42 394.3 236.419 395.883 247.366 398.417C251.986 399.43 256.479 400.317 257.302 400.317C258.124 400.317 258.82 400.57 258.82 400.824C258.82 401.774 241.608 403.484 232.242 403.484C220.219 403.484 210.98 402.661 193.451 400C185.541 398.797 177.884 397.783 176.555 397.783C175.163 397.783 174.023 397.53 174.023 397.277C174.023 395.883 178.263 392.969 182.06 391.703C186.806 390.056 189.844 389.866 196.488 390.879ZM65.1797 400.444C76.507 404.371 84.1641 406.018 106.945 409.438C123.715 412.035 141.94 415.076 142.383 415.392C143.585 416.279 133.523 421.98 126.752 424.26C110.173 429.961 88.3406 426.224 70.5586 414.632C64.4836 410.642 56.8266 403.294 54.5484 399.177L53.093 396.58L55.8141 397.403C57.3328 397.847 61.5094 399.24 65.1797 400.444ZM191.426 401.204C214.903 405.131 236.925 406.081 251.986 403.801C256.416 403.167 260.149 402.724 260.339 402.914C260.466 403.041 260.402 404.181 260.149 405.384L259.706 407.601L254.707 408.108C248.569 408.741 218.763 408.235 209.145 407.285C200.412 406.461 190.35 405.068 181.301 403.421C172.252 401.774 172.125 401.711 172.125 400.19C172.125 398.924 172.378 398.86 177.061 399.24C179.719 399.43 186.237 400.317 191.426 401.204ZM181.111 404.751C201.171 408.551 216.738 409.945 238.887 409.818C247.936 409.755 256.352 409.628 257.555 409.565C259.77 409.502 259.77 409.502 259.959 412.479L260.149 415.519L258.061 415.582C256.922 415.582 252.429 415.836 248.063 416.089C239.013 416.596 214.713 415.962 205.348 414.886C201.867 414.506 194.78 413.492 189.527 412.669C184.338 411.845 178.263 410.958 176.112 410.768C172.252 410.325 172.125 410.262 171.745 408.235C171.239 405.448 171.935 403.484 173.391 403.484C174.087 403.484 177.504 404.054 181.111 404.751ZM186.363 414.822C191.616 415.582 197.691 416.406 199.969 416.786C209.145 418.116 225.598 418.813 241.798 418.559C251.163 418.433 258.82 418.496 258.82 418.749C258.82 419.89 251.986 421.283 243.633 421.916C232.622 422.677 210.347 421.79 193.388 419.89C183.895 418.813 173.454 417.166 173.011 416.596C173.011 416.532 172.758 415.646 172.505 414.632C172.062 412.795 172.062 412.795 174.466 413.175C175.795 413.365 181.174 414.125 186.363 414.822Z" fill="#6358DC"/>
<path d="M323.051 47.5057C316.09 48.6459 310.584 51.4962 306.155 56.2468C302.421 60.2373 300.143 63.7844 293.941 75.3759C291.22 80.4432 286.854 88.1075 284.259 92.4147C278.184 102.549 276.539 106.286 276.539 110.15C276.539 112.494 276.919 113.571 278.058 114.838C282.108 119.208 290.587 121.488 305.965 122.248C318.621 122.945 338.934 124.655 361.02 126.936C369.056 127.759 380.384 128.773 386.205 129.216C392.027 129.596 400.317 130.356 404.557 130.863C408.797 131.37 417.53 132.32 423.984 133.017C430.439 133.713 438.096 134.6 441.07 134.98C444.045 135.36 451.448 135.74 457.523 135.804C470.496 135.867 474.799 134.98 480.241 131.243C484.291 128.519 485.494 126.366 492.265 109.897C494.67 103.943 498.087 95.8985 499.859 92.0347C508.022 74.0457 508.781 67.2682 503.086 62.4543C499.036 59.0972 494.227 58.2104 476.191 57.577C467.142 57.2603 453.03 56.6269 444.867 56.0568C436.704 55.5501 425.187 54.79 419.238 54.4099C413.353 54.0299 406.898 53.4598 405 53.1431C403.102 52.8264 399.241 52.573 396.457 52.573C393.673 52.573 388.294 52.2563 384.434 51.9396C380.637 51.6229 373.359 51.0528 368.297 50.7361C363.234 50.3561 354.122 49.5326 348.047 48.8359C333.619 47.189 326.911 46.8723 323.051 47.5057ZM358.805 52.573C377.283 54.5366 380.637 54.8533 398.672 55.7401C414.176 56.5635 438.539 58.2104 439.805 58.5904C441.387 59.0338 423.605 58.4004 415.441 57.7037C408.354 57.0703 396.963 56.4368 367.98 55.1067C361.399 54.79 351.148 54.0932 345.199 53.5865C327.734 52.0029 321.912 52.3197 315.773 55.4234C310.964 57.8937 306.977 62.8343 298.434 77.2761C293.941 84.7504 288.246 94.2516 285.652 98.3055C281.602 104.64 280.969 106.096 280.969 108.567C280.969 112.304 283.12 114.964 287.297 116.168C290.081 116.991 301.852 118.701 309.129 119.271C310.711 119.398 310.078 119.525 307.547 119.588C305.269 119.651 300.586 119.271 297.105 118.765C282.741 116.674 277.488 113.254 279.64 107.3C280.083 106.033 284.639 97.7354 289.765 88.8043C294.891 79.8098 300.523 69.9285 302.168 66.8248C306.091 59.5406 310.205 55.17 315.141 52.9531C322.481 49.6593 330.771 49.596 358.805 52.573ZM350.578 55.4234C364.373 56.4368 381.523 57.4503 401.836 58.2737C409.303 58.5904 419.745 59.1605 424.934 59.4772C430.186 59.8573 440.248 60.4273 447.398 60.8074C473.85 62.2642 484.861 63.2777 492.391 65.1146L499.605 66.8882L499.479 71.7021C499.352 77.9729 496.631 86.1439 489.923 100.396C487.139 106.286 483.848 113.951 482.52 117.371C478.153 128.963 475.369 130.23 455.941 129.659C448.98 129.406 438.159 128.646 431.895 127.949C425.63 127.252 413.986 126.239 405.949 125.732C397.976 125.162 385.13 124.022 377.473 123.199C369.816 122.375 358.995 121.362 353.426 120.982C347.857 120.602 338.745 119.842 333.176 119.335C327.607 118.828 317.672 118.131 311.027 117.815C289.385 116.674 282.867 114.584 282.867 108.63C282.867 105.97 287.234 98.1788 304.383 70.3086C311.534 58.7805 315.963 55.6134 326.531 54.5366C331.784 53.9665 332.859 54.0299 350.578 55.4234ZM451.069 59.3505C450.436 59.4772 449.423 59.4772 448.854 59.3505C448.221 59.1605 448.727 59.0338 449.93 59.0338C451.132 59.0338 451.638 59.1605 451.069 59.3505ZM475.559 60.174C481.127 60.554 488.215 61.1241 491.316 61.4408C505.934 62.961 507.389 69.1051 497.77 89.501C496.188 92.8581 493.72 98.4321 492.328 101.853C486.443 116.484 484.165 121.742 482.583 124.402C478.976 130.546 473.47 132.826 461.763 133.08C456.384 133.207 328.177 121.488 330.708 121.108C331.467 120.982 361.209 123.389 396.837 126.366C439.805 130.039 463.282 131.75 466.573 131.56C472.837 131.18 477.71 128.963 480.305 125.289C481.317 123.895 483.216 120.032 484.481 116.674C485.747 113.254 489.037 105.716 491.822 99.8257C498.53 85.5105 500.618 79.113 501.061 71.8921C501.314 66.1914 501.314 66.1281 499.732 65.4313C494.67 63.0877 480.748 61.1874 462.902 60.2373C453.853 59.7939 453.41 59.7306 459.105 59.6039C462.586 59.6039 469.99 59.8573 475.559 60.174ZM324.19 120.158C323.747 120.285 322.861 120.285 322.291 120.158C321.659 119.968 322.038 119.842 323.051 119.842C324.127 119.842 324.57 119.968 324.19 120.158ZM328.873 120.728C328.683 120.918 328.113 120.982 327.67 120.792C327.164 120.602 327.354 120.412 328.05 120.412C328.746 120.348 329.126 120.538 328.873 120.728Z" fill="#6358DC"/>
<path d="M269.388 126.049C265.845 126.682 264.389 127.822 262.111 131.623C259.833 135.55 258.82 138.844 259.516 140.047C260.276 141.504 263.693 142.011 292.043 145.051C324.696 148.535 337.795 150.055 344.883 151.069C348.173 151.575 354.881 152.272 359.754 152.652C364.627 153.032 374.055 154.046 380.637 154.869C387.281 155.693 396.963 156.706 402.152 157.086C407.405 157.466 415.505 158.163 420.188 158.67C424.87 159.176 431.009 159.746 433.793 159.936C436.577 160.126 444.298 160.887 450.942 161.647C457.587 162.343 463.788 162.787 464.738 162.533C465.623 162.343 467.459 160.697 468.914 158.923C471.762 155.313 473.154 151.259 472.331 148.852C471.129 145.431 463.345 143.531 446.766 142.518C440.691 142.201 433.16 141.441 429.996 140.997C426.895 140.491 420.314 139.794 415.441 139.351C410.569 138.97 401.456 138.084 395.191 137.45C388.927 136.754 371.588 135.043 356.59 133.65C341.655 132.256 321.975 130.356 312.926 129.406C303.877 128.519 295.207 127.822 293.688 127.886C292.17 127.949 289.891 127.632 288.689 127.252C287.487 126.872 284.766 126.429 282.614 126.366C280.462 126.239 277.362 126.049 275.59 125.859C273.881 125.669 271.034 125.732 269.388 126.049ZM275.463 128.392C275.02 128.519 274.261 128.519 273.881 128.392C273.438 128.202 273.755 128.076 274.641 128.076C275.527 128.076 275.843 128.202 275.463 128.392ZM271.097 129.533C272.046 130.166 273.881 130.483 276.286 130.419C278.311 130.356 282.424 130.673 285.398 131.116C288.373 131.496 292.612 132.003 294.891 132.13C297.169 132.256 302.168 132.826 305.965 133.333C309.825 133.903 316.47 134.6 320.836 134.917C328.24 135.487 337.099 136.373 343.617 137.134C347.857 137.64 371.777 139.921 376.523 140.237C378.802 140.427 382.092 140.744 383.801 140.934C392.534 142.011 464.358 148.852 467.079 148.852C469.863 148.852 470.18 148.978 470.18 150.309C470.18 152.462 467.079 158.29 465.37 159.43C463.978 160.316 462.713 160.316 453.853 159.683C448.411 159.24 439.362 158.353 433.793 157.719C428.224 157.023 418.416 156.073 411.961 155.503C405.506 154.996 395.698 153.982 390.129 153.286C384.56 152.652 377.283 151.955 373.992 151.702C370.702 151.449 364.437 150.752 360.07 150.119C355.704 149.422 345.642 148.282 337.605 147.585C329.632 146.888 318.811 145.748 313.559 145.051C308.37 144.418 302.105 143.658 299.637 143.468C297.232 143.214 289.385 142.201 282.234 141.251C275.084 140.237 267.616 139.224 265.655 139.034C262.364 138.654 261.984 138.464 261.984 137.197C261.984 134.79 267.11 128.582 269.135 128.582C269.388 128.582 270.274 129.026 271.097 129.533ZM295.84 130.483C295.65 130.799 295.08 131.116 294.574 131.116C294.068 131.116 293.498 130.799 293.309 130.483C293.055 130.103 293.625 129.849 294.574 129.849C295.523 129.849 296.093 130.103 295.84 130.483ZM306.155 131.56C305.522 131.686 304.509 131.686 303.94 131.56C303.307 131.369 303.813 131.243 305.016 131.243C306.218 131.243 306.724 131.369 306.155 131.56ZM316.913 132.193C316.28 132.32 315.267 132.32 314.698 132.193C314.065 132.003 314.571 131.876 315.773 131.876C316.976 131.876 317.482 132.003 316.913 132.193ZM327.038 133.46C326.025 133.586 324.506 133.586 323.557 133.46C322.545 133.333 323.367 133.206 325.266 133.206C327.164 133.206 327.987 133.333 327.038 133.46ZM337.163 134.727C336.53 134.853 335.391 134.853 334.631 134.727C333.809 134.6 334.315 134.473 335.707 134.473C337.099 134.41 337.732 134.537 337.163 134.727ZM347.92 135.36C346.908 135.487 345.389 135.487 344.44 135.36C343.427 135.233 344.25 135.107 346.148 135.107C348.047 135.107 348.87 135.233 347.92 135.36ZM358.995 136.627C357.855 136.754 355.957 136.754 354.881 136.627C353.742 136.5 354.628 136.373 356.906 136.373C359.184 136.373 360.07 136.5 358.995 136.627ZM370.828 137.45C370.828 137.767 369.246 138.084 367.348 138.084C365.449 138.084 363.867 137.767 363.867 137.45C363.867 137.07 365.449 136.817 367.348 136.817C369.246 136.817 370.828 137.07 370.828 137.45ZM379.245 138.527C378.105 138.654 376.207 138.654 375.131 138.527C373.992 138.4 374.878 138.274 377.156 138.274C379.434 138.274 380.32 138.4 379.245 138.527ZM389.623 139.794C388.357 139.921 386.332 139.921 385.193 139.794C384.117 139.667 385.193 139.541 387.598 139.541C390.066 139.541 390.952 139.667 389.623 139.794ZM402.469 140.617C402.469 141.187 395.002 140.807 394.305 140.237C394.179 140.111 395.951 139.984 398.229 139.984C400.57 139.984 402.469 140.237 402.469 140.617ZM410.505 141.694C409.24 141.821 407.215 141.821 406.076 141.694C405 141.567 406.076 141.441 408.48 141.441C410.948 141.441 411.834 141.567 410.505 141.694ZM423.035 142.834C423.415 142.961 421.58 143.088 419.048 143.088C416.517 143.151 414.555 142.898 414.745 142.644C415.062 142.138 421.516 142.328 423.035 142.834ZM429.237 143.594C428.414 143.721 427.148 143.721 426.389 143.594C425.566 143.468 426.199 143.341 427.781 143.341C429.363 143.341 429.996 143.468 429.237 143.594ZM453.094 145.431C457.777 145.938 462.016 146.698 462.586 147.015C463.219 147.458 462.713 147.522 460.688 147.332C459.106 147.141 452.018 146.381 444.931 145.685C437.78 144.988 431.831 144.228 431.641 144.038C431.135 143.468 442.463 144.228 453.094 145.431Z" fill="#6358DC"/>
<path d="M251.859 159.24C223.256 167.031 210.284 171.085 199.02 175.772C188.515 180.142 173.201 187.49 168.012 190.657C152.191 200.222 130.043 220.681 118.526 236.326C115.741 240.127 112.641 245.257 112.641 246.081C112.641 247.158 115.931 243.484 117.703 240.38C122.386 232.272 135.738 217.641 148.331 206.936C156.368 200.158 172.378 189.58 182.123 184.703C196.109 177.735 233.381 165.067 253.125 160.57C262.301 158.48 266.541 157.15 266.034 156.389C265.528 155.566 265.338 155.566 251.859 159.24Z" fill="#6358DC"/>
<path d="M334.062 159.24C333.935 159.366 329.126 160 323.367 160.507C309.698 161.837 306.408 162.344 287.677 165.701C257.934 171.085 238.444 176.849 220.345 185.653C193.83 198.448 169.404 215.867 150.673 235.313C144.534 241.71 138.586 249.058 138.586 250.261C138.586 251.781 140.231 250.261 145.104 243.991C151.748 235.566 152.888 234.426 162.316 226.065C171.872 217.641 175.859 214.6 187.439 206.619C207.436 192.874 219.902 186.35 239.203 179.446C252.176 174.885 253.188 174.568 265.591 171.655C290.145 165.954 308.496 162.787 325.898 161.14C331.277 160.697 336.213 160.253 336.846 160.253C337.416 160.253 337.922 159.937 337.922 159.62C337.922 158.986 334.631 158.67 334.062 159.24Z" fill="#6358DC"/>
<path d="M380.004 165.954C370.448 166.714 360.387 167.918 353.109 169.121C349.122 169.818 343.87 170.705 341.402 171.021C338.997 171.401 332.986 172.542 328.113 173.555C323.24 174.569 316.722 175.835 313.685 176.405C299.89 178.939 258.82 191.924 244.455 198.322C219.08 209.533 198.197 224.038 177.314 245.067C165.164 257.292 162.19 260.713 162.886 261.409C163.139 261.663 165.101 259.889 167.252 257.482C173.707 250.135 187.882 236.263 194.4 230.816C204.968 222.011 222.307 210.863 235.026 204.592C249.201 197.688 255.466 195.154 272.932 189.454C293.372 182.803 304.066 180.016 327.797 175.139C343.68 171.845 348.363 171.148 364.183 169.438C383.801 167.348 389.812 166.524 389.812 165.891C389.812 165.257 387.977 165.321 380.004 165.954Z" fill="#6358DC"/>
<path d="M49.9922 252.415C49.9922 252.732 50.8781 254.569 51.8906 256.342C53.7891 259.699 56.3836 261.6 58.8516 261.6C60.8133 261.6 60.1172 260.206 57.5859 259.003C56.4469 258.433 54.2953 256.596 52.7766 254.885C51.2578 253.175 50.0555 252.035 49.9922 252.415Z" fill="#6358DC"/>
<path d="M56.1307 330.452C55.1815 332.099 54.2956 344.45 54.7385 350.341L55.1815 357.055L57.5229 358.385C62.9651 361.489 83.9745 368.076 99.9846 371.75C109.54 373.904 141.814 379.415 145.041 379.415H147.192L148.268 366.873C148.901 360.032 149.534 353.508 149.724 352.431L150.04 350.531L143.522 349.517C132.511 347.744 95.6182 340.84 88.2776 339.129C84.4807 338.243 76.0643 335.772 69.6096 333.745C57.6495 329.945 56.5737 329.692 56.1307 330.452ZM77.2034 337.609C93.087 341.79 101.757 343.563 138.586 350.088C143.649 350.974 147.889 351.798 147.952 351.924C148.332 352.178 146.053 377.134 145.61 377.578C145.421 377.831 142.13 377.514 138.27 376.881C134.473 376.247 128.208 375.297 124.348 374.664C100.871 371.117 67.9643 362.502 59.1682 357.688L56.637 356.295V344.894C56.637 338.623 56.8268 332.985 57.0799 332.415C57.4596 331.465 58.0292 331.528 62.7752 333.239C65.6862 334.316 72.1409 336.279 77.2034 337.609Z" fill="#6358DC"/>
<path d="M446.766 187.11C442.969 188.503 438.286 191.1 437.21 192.304C435.818 193.951 434.995 196.358 433.477 202.882C431.958 209.469 431.009 211.496 428.477 213.65C422.466 218.717 410.126 220.681 379.688 221.378C371.145 221.568 363.741 221.884 363.234 222.011C362.728 222.201 357.602 222.581 351.844 222.898C346.085 223.278 337.859 224.165 333.492 224.861C317.798 227.522 292.992 234.489 292.992 236.263C292.992 236.96 296.473 236.073 304.699 233.412C317.229 229.359 330.961 226.255 342.984 224.925C346.275 224.545 356.4 223.911 365.449 223.531C398.925 222.201 406.709 221.758 412.594 220.744C428.541 218.084 431.958 215.423 435.059 203.072C435.881 199.715 436.957 196.358 437.337 195.534C438.855 192.621 441.387 190.657 445.247 189.39C447.398 188.63 449.55 187.617 449.93 187.11C450.942 185.97 449.93 185.97 446.766 187.11Z" fill="#6358DC"/>
<path d="M464.231 212.7C463.029 214.664 466.446 274.395 469.23 301.505C471.825 326.081 475.748 346.477 477.837 346.477C478.469 346.477 493.151 342.993 586.491 320.76C604.652 316.453 619.713 312.906 619.84 312.906C620.03 312.906 620.156 312.589 620.156 312.273C620.156 310.943 621.042 310.753 541.687 329.818C527.955 333.112 512.578 336.786 507.516 337.989C502.453 339.193 494.227 341.22 489.164 342.487C484.102 343.753 479.482 344.64 478.912 344.387C477.584 343.943 475.622 337.673 474.293 329.692C473.723 326.525 472.458 314.996 471.445 304.038C470.433 293.08 469.294 281.932 468.977 279.335C468.598 276.738 468.281 271.418 468.281 267.617C468.218 263.753 467.902 257.672 467.585 253.999C467.269 250.325 466.762 239.937 466.509 230.879C466.066 215.677 465.434 210.737 464.231 212.7Z" fill="#6358DC"/>
<path d="M423.415 257.989C423.036 258.496 422.909 259.066 423.099 259.256C423.668 259.763 425.883 258.559 425.883 257.799C425.883 256.849 424.238 257.039 423.415 257.989Z" fill="#6358DC"/>
<path d="M259.39 327.158C255.403 328.425 251.1 332.415 249.328 336.469C248.125 339.193 247.936 340.586 248.189 344.577C248.505 349.834 249.518 352.368 252.745 355.535C258.947 361.742 268.945 361.616 274.261 355.281C277.615 351.354 278.69 348.377 278.69 343.627C278.69 332.289 269.135 324.118 259.39 327.158ZM270.464 329.945C273.438 331.782 276.349 336.342 277.172 340.586C279.45 351.354 270.147 360.855 259.959 358.195C252.555 356.295 247.746 347.11 249.897 339.066C250.91 335.329 254.2 331.212 257.554 329.502C261.161 327.601 267.047 327.855 270.464 329.945Z" fill="#6358DC"/>
<path d="M260.403 331.212C256.099 332.289 252.999 335.329 251.86 339.573C250.467 344.64 253.505 352.431 257.935 355.408C262.807 358.575 270.717 355.408 274.071 348.884C275.843 345.4 275.717 339.129 273.818 336.279C271.224 332.479 264.959 330.072 260.403 331.212ZM269.262 333.745C272.363 335.519 274.008 338.559 274.008 342.487C274.008 351.354 265.592 357.878 258.821 354.395C254.96 352.431 251.986 344.577 253.188 339.699C254.834 333.239 263.124 330.135 269.262 333.745Z" fill="#6358DC"/>
<path d="M270.211 347.11C268.882 350.151 266.414 351.734 262.934 351.797C260.276 351.861 259.77 351.607 257.428 349.137C254.707 346.16 254.011 345.97 255.214 348.377C257.175 352.241 263.503 354.014 267.617 351.924C269.832 350.721 271.603 348.06 271.35 346.35C271.161 345.147 271.034 345.273 270.211 347.11Z" fill="#6358DC"/>
<path d="M567.696 46.8723C561.684 48.5192 551.117 53.5231 544.345 58.0837C537.258 62.771 529.981 70.0552 525.424 77.0228C518.084 88.1708 506.187 113.444 501.884 126.809C500.302 131.876 498.024 142.201 498.024 144.481C498.024 144.735 497.011 145.178 495.809 145.431C493.277 145.875 490.43 147.902 490.43 149.169C490.43 149.675 489.924 150.309 489.354 150.625C487.772 151.512 487.266 161.963 488.784 162.534C490.43 163.167 495.239 161.583 496.821 159.873C498.087 158.48 498.15 158.163 497.454 155.819C496.884 153.856 496.125 153.032 494.227 152.019C491.885 150.815 491.759 150.625 492.455 149.169C492.834 148.282 493.531 147.585 493.91 147.585C494.353 147.585 495.556 147.395 496.568 147.205C498.467 146.825 498.467 146.888 498.846 150.119C499.416 155.059 501.504 158.796 504.795 160.95C510.174 164.307 516.438 164.814 528.715 162.85C532.892 162.154 542.574 161.267 550.231 160.887C564.975 160.19 572.442 159.493 582.188 158.1C585.478 157.593 590.098 157.023 592.439 156.77C597.249 156.326 601.488 154.426 603.26 151.892C605.538 148.788 605.918 139.224 604.399 119.842C603.703 110.53 602.248 91.5279 601.172 77.5928C599.21 52.3196 599.21 52.2563 597.565 50.5461C594.781 47.6324 589.275 46.1122 580.289 45.8588C573.834 45.6688 571.493 45.8588 567.696 46.8723ZM592.123 49.3426C596.552 51.0528 597.312 51.6229 597.628 53.0797C598.071 55.0433 601.172 97.102 601.172 100.649V102.929L587.44 102.169C559.723 100.712 539.916 101.346 531.499 104.07C523.399 106.603 515.489 113.001 512.831 119.145C511.756 121.488 511.566 121.615 508.971 121.615C505.427 121.615 505.427 120.982 509.161 111.924C516.185 94.7583 525.551 78.1629 532.765 70.1819C539.663 62.5809 550.294 55.0433 559.976 50.9895C567.506 47.8224 572.506 46.8723 580.289 47.1256C585.921 47.3157 587.756 47.6957 592.123 49.3426ZM595.16 104.766L602.121 105.463L602.501 112.431C602.944 119.778 603.197 131.75 602.944 131.75C592.756 130.863 514.287 122.312 514.034 122.058C513.401 121.425 517.514 115.534 520.742 112.557C526.247 107.363 532.638 105.02 543.966 103.943C551.559 103.183 585.542 103.753 595.16 104.766ZM553.395 127.632C579.53 130.293 601.488 132.573 602.311 132.763C603.64 133.017 603.703 133.27 603.703 139.857C603.703 147.585 602.627 150.879 599.463 153.159C596.869 154.996 593.515 155.693 582.504 156.453C577.315 156.833 567.633 157.72 560.988 158.353C540.992 160.38 540.422 160.443 540.422 160C540.422 159.81 541.371 159.24 542.574 158.733C546.434 157.086 547.067 155.439 547.003 146.065C547.003 136.754 545.864 132.89 542.574 130.736C539.409 128.646 527.323 129.786 514.667 133.397C509.161 134.98 506.25 138.21 506.25 142.834V145.051H503.023H499.732L500.049 140.998C500.365 137.387 504.795 122.882 505.617 122.882C505.807 122.882 527.323 125.035 553.395 127.632ZM541.624 132.383C543.902 133.587 544.852 137.577 544.852 146.065C544.852 153.982 544.852 154.046 543.017 155.883C541.245 157.593 540.865 157.72 535.866 157.72C525.614 157.72 514.35 155.819 511.629 153.666C510.047 152.399 508.465 147.965 509.161 146.825C509.351 146.572 512.325 146.318 515.742 146.318C521.754 146.318 522.07 146.382 523.083 147.902C523.842 149.105 524.665 149.485 526.437 149.485C529.284 149.485 530.297 148.598 530.297 146.065C530.297 142.074 526.12 140.491 523.336 143.468C521.944 144.988 521.438 145.051 515.299 145.051H508.781V142.201C508.781 137.45 510.3 136.5 521.691 133.967C525.551 133.143 529.284 132.32 529.981 132.193C532.449 131.623 540.549 131.75 541.624 132.383ZM528.272 143.531C529.917 144.671 530.044 146.128 528.588 147.712C527.386 149.042 525.804 149.169 524.728 148.092C523.589 146.952 523.779 146.318 525.234 146.318C526.943 146.318 526.88 145.241 525.108 144.671C523.779 144.291 523.779 144.228 524.918 143.404C526.437 142.328 526.563 142.328 528.272 143.531ZM506.883 147.902C506.883 152.082 510.49 156.453 514.983 157.72C516.249 158.036 520.045 158.48 523.336 158.67C531.499 159.176 534.727 159.62 534.727 160.19C534.727 160.95 521.311 162.407 516.059 162.28C506.377 161.963 501.441 158.163 500.238 149.992L499.795 147.015L502.517 146.762C504.035 146.635 505.681 146.508 506.124 146.445C506.567 146.382 506.883 147.015 506.883 147.902ZM494.796 154.299C497.327 157.53 496.252 159.62 491.252 161.14C489.86 161.583 489.797 161.457 489.797 157.53C489.797 155.313 489.987 153.286 490.24 153.096C491.189 152.082 493.594 152.779 494.796 154.299Z" fill="#6358DC"/>
<path d="M600.223 171.338C598.894 172.605 598.641 173.492 598.641 176.405C598.641 179.319 598.894 180.206 600.223 181.473C603.007 184.323 608.006 183.119 609.082 179.382C609.335 178.369 609.209 177.989 608.576 177.989C608.07 177.989 607.437 178.686 607.247 179.572C606.741 181.599 604.083 182.296 601.868 181.093C600.476 180.332 600.223 179.636 600.033 176.912C599.906 174.252 600.096 173.365 601.109 172.351C602.88 170.578 604.842 170.705 606.994 172.731C608.259 173.935 608.766 174.125 608.766 173.492C608.766 172.922 608.133 171.908 607.31 171.148C605.285 169.248 602.184 169.311 600.223 171.338Z" fill="#6358DC"/>
<path d="M600.919 175.265C600.413 176.595 601.552 177.862 602.438 176.975C603.134 176.279 602.627 174.188 601.805 174.188C601.552 174.188 601.109 174.695 600.919 175.265Z" fill="#6358DC"/>
<path d="M34.8049 209.09C32.0838 210.23 29.6792 213.017 27.4643 217.577C24.3002 224.101 24.4901 229.992 28.0338 237.403C29.6159 240.76 33.6659 244.371 36.387 244.877C41.3229 245.764 46.8917 242.407 49.8026 236.643C52.2073 232.019 52.587 224.101 50.6885 219.034C48.7901 214.094 46.9549 211.56 44.1073 210.103C41.1963 208.646 37.0198 208.139 34.8049 209.09ZM43.8542 211.37C47.5245 213.207 50.6252 220.238 50.6252 226.825C50.6252 236.073 45.3729 243.231 38.5385 243.231C27.844 243.231 22.7182 225.622 30.2487 214.537C33.2862 210.04 38.7284 208.773 43.8542 211.37Z" fill="#6358DC"/>
<path d="M225.851 236.263C218.827 240 214.84 250.008 216.422 259.953C218.194 270.974 226.041 278.068 234.457 276.168C238.697 275.218 240.595 274.078 243.506 270.784C247.05 266.794 248.316 262.613 248.316 255.582C248.316 248.488 247.05 244.371 243.443 240.317C241.987 238.67 239.709 236.833 238.254 236.2C234.837 234.616 228.888 234.68 225.851 236.263ZM235.786 236.897C243.759 239.937 248.505 251.465 245.911 261.536C244.772 266.034 242.494 269.454 238.887 272.368C236.862 274.015 235.976 274.268 232.748 274.268C226.23 274.268 222.94 271.861 219.649 264.767C217.434 259.953 217.371 251.528 219.523 246.524C221.421 242.344 226.927 237.087 229.901 236.707C233.698 236.263 234.077 236.263 235.786 236.897Z" fill="#6358DC"/>
<path d="M78.532 278.385C74.1023 279.652 71.0016 281.996 69.5461 285.289C68.3438 288.076 65.1797 307.839 65.1797 312.779C65.1797 318.544 68.407 321.331 76.8867 323.041C78.975 323.484 83.9742 324.878 87.9609 326.208C95.3648 328.741 99.7945 329.628 115.488 331.909C120.361 332.605 127.069 333.619 130.423 334.189C138.776 335.646 141.877 335.139 145.294 331.719C148.141 328.805 148.711 327.475 152.508 313.983C155.735 302.645 155.798 301.061 153.647 298.211C151.052 294.791 143.965 290.357 137.32 287.95C134.03 286.746 128.841 284.719 125.803 283.452C115.868 279.335 108.338 278.005 94.2891 277.688C84.5438 277.498 81.2531 277.625 78.532 278.385ZM81.6328 281.679C81.6328 284.656 81 285.036 77.8359 284.276C76.2539 283.896 74.7352 283.389 74.4188 283.072C73.6594 282.376 77.8359 279.969 79.9242 279.969C81.3797 279.969 81.6328 280.222 81.6328 281.679ZM109.983 281.172C113.4 281.869 118.905 283.389 122.259 284.656C125.613 285.923 128.651 286.936 129.03 286.936C129.916 286.936 129.916 287.316 129.03 291.37C128.461 294.157 128.145 294.537 126.752 294.537C125.36 294.537 111.438 292.447 107.705 291.623C106.819 291.433 105.806 290.357 104.92 288.52C103.148 284.846 102.136 284.529 99.6047 287C97.7063 288.9 97.2633 288.963 94.4156 288.646C92.6438 288.456 89.6695 287.823 87.7078 287.253C84.2906 286.239 84.1641 286.113 84.1641 284.086C84.1641 279.905 83.9742 279.969 94.3523 279.969C100.997 279.969 105.553 280.349 109.983 281.172ZM77.1398 285.669C78.975 286.303 80.6203 287 80.6836 287.063C81.2531 287.633 81.1266 294.664 80.557 295.234C80.0508 295.741 78.3422 295.487 74.6719 294.474L69.4828 293.08L69.9258 290.927C70.432 288.013 72.2039 284.403 73.0266 284.403C73.4063 284.403 75.2414 284.973 77.1398 285.669ZM90.1758 289.597C93.2766 290.357 95.9977 291.053 96.1242 291.117C96.2508 291.243 95.6813 292.384 94.8586 293.714C93.5297 295.867 93.5297 295.994 94.6055 295.234C95.3016 294.727 97.0734 293.144 98.5289 291.813C100.048 290.293 101.566 289.47 102.073 289.66C102.579 289.85 103.908 291.56 104.984 293.46C106.059 295.361 107.388 297.261 107.831 297.704C108.654 298.338 108.654 298.084 108.148 296.121C107.768 294.854 107.578 293.714 107.705 293.587C107.831 293.46 127.195 296.754 127.638 297.007C127.702 297.071 127.195 298.781 126.436 300.871C125.74 302.962 124.98 304.545 124.664 304.355C124.411 304.165 120.234 303.468 115.488 302.772C110.742 302.075 106.566 301.315 106.249 301.188C105.996 300.998 104.984 299.414 104.034 297.704C103.085 295.994 101.946 294.474 101.44 294.22C100.87 294.03 99.6047 294.854 98.1492 296.437C95.4914 299.351 94.732 299.478 88.0242 297.958L83.5313 296.944L83.7211 292.574C83.7844 290.167 83.9742 288.203 84.1641 288.203C84.2906 288.203 87.0117 288.836 90.1758 289.597ZM141.434 291.94C146.559 294.474 150.609 297.324 149.913 297.958C149.534 298.338 139.915 297.007 134.346 295.804C130.739 294.981 130.676 294.854 131.688 291.117C132.321 288.836 132.448 288.71 134.346 289.09C135.485 289.28 138.649 290.61 141.434 291.94ZM76.1273 296.184C78.4688 296.754 80.3672 297.578 80.4305 297.958C80.4938 299.161 80.2406 305.622 80.1141 305.749C80.0508 305.812 78.5953 305.495 76.8867 304.925C75.1148 304.418 72.6469 303.722 71.3813 303.342C68.7867 302.645 68.5336 301.948 69.3563 296.881C69.6727 295.107 70.0523 294.6 70.8117 294.791C71.3813 294.981 73.7227 295.614 76.1273 296.184ZM136.055 297.641C137.953 298.021 142.256 298.654 145.547 298.971C148.964 299.351 151.938 300.048 152.445 300.491C153.077 301.125 153.204 302.201 152.888 304.292L152.445 307.269L149.47 306.889C147.825 306.699 142.383 306.129 137.447 305.622C132.448 305.178 128.208 304.608 128.018 304.418C127.765 304.165 129.473 298.211 130.17 296.881C130.359 296.627 130.929 296.501 131.498 296.691C132.131 296.817 134.156 297.261 136.055 297.641ZM104.477 303.405C107.705 308.536 108.844 309.549 107.578 306.319C106.629 303.722 106.755 303.405 109.034 303.405C112.388 303.468 123.398 305.685 124.158 306.445C124.727 307.015 124.727 307.585 124.158 308.789C123.715 309.676 123.398 311.069 123.398 311.893C123.398 314.236 122.006 314.996 119.159 314.236C117.83 313.92 112.641 313.033 107.578 312.273C94.6055 310.436 88.2141 309.169 85.3664 308.029L82.8984 307.079V303.025C82.8984 299.604 83.0883 298.971 84.0375 299.034C85.9992 299.034 94.2891 300.681 94.732 301.061C94.9219 301.315 94.6055 302.201 94.0359 303.088C92.3906 305.622 93.7828 304.925 97.1367 301.505C98.8453 299.731 100.491 298.338 100.744 298.338C101.06 298.338 102.705 300.618 104.477 303.405ZM75.0516 305.559C80.4938 307.142 80.8734 307.649 80.0508 312.019C79.6078 314.68 79.0383 314.68 72.457 312.399L67.3313 310.626L67.8375 308.092C68.5336 304.798 68.85 304.038 69.4828 304.038C69.7359 304.038 72.2672 304.735 75.0516 305.559ZM141.117 307.585C146.18 308.156 150.546 308.852 150.799 309.106C151.305 309.549 149.85 316.453 149.091 317.15C148.838 317.467 130.106 315.186 126.689 314.426C125.044 314.11 125.044 314.236 126.626 308.219C127.259 305.875 127.322 305.812 129.6 306.129C130.866 306.319 136.055 306.952 141.117 307.585ZM90.6188 310.626C98.1492 312.399 108.78 314.426 116.311 315.503L121.627 316.263L121.184 319.494C120.93 321.267 120.551 322.914 120.298 323.167C119.855 323.611 96.9469 320.38 92.0109 319.177C87.9609 318.163 84.0375 316.453 83.0883 315.376C82.2656 314.363 82.7086 309.106 83.5313 309.106C83.8477 309.106 87.0117 309.802 90.6188 310.626ZM73.7227 314.173C79.2914 316.01 79.8609 316.453 79.6078 318.86C79.418 320.76 79.3547 320.824 76.5703 320.634C72.5203 320.38 68.85 318.163 67.9641 315.44C67.1414 313.096 67.3945 312.019 68.5969 312.463C68.9766 312.589 71.318 313.413 73.7227 314.173ZM138.523 317.657C142.826 318.227 146.749 318.924 147.255 319.304C148.268 320.19 148.331 322.471 147.319 324.688C146.559 326.334 146.433 326.334 142.383 325.954C135.232 325.321 124.031 323.738 123.398 323.357C122.449 322.787 122.639 320.634 123.841 318.163C124.854 315.947 124.917 315.947 127.765 316.327C129.347 316.58 134.22 317.15 138.523 317.657ZM87.5813 319.304C89.6063 320 95.8711 321.267 101.503 322.091C112.957 323.864 119.602 325.004 119.602 325.258C119.602 325.321 119.285 326.334 118.905 327.475L118.146 329.565L113.02 329.185C104.161 328.551 90.682 325.574 83.9109 322.724C81.8859 321.837 81.6328 321.521 81.6328 319.494C81.6328 317.593 81.8227 317.277 82.7719 317.657C83.3414 317.847 85.493 318.607 87.5813 319.304ZM135.105 326.588C139.662 327.158 143.712 327.728 144.155 327.855C145.61 328.235 144.914 330.008 142.889 331.275C139.662 333.239 133.017 332.922 121.69 330.325C120.488 330.072 120.424 329.755 120.867 328.108C121.753 325.131 122.07 324.814 124.601 325.194C125.866 325.384 130.613 326.018 135.105 326.588Z" fill="#6358DC"/>
<path d="M760.008 308.726C760.008 313.286 757.666 318.86 753.996 322.977C752.098 325.131 750.516 327.031 750.516 327.158C750.516 327.348 750.959 327.475 751.465 327.475C752.984 327.475 756.844 323.674 758.426 320.57C761.527 314.363 762.919 306.572 760.957 306.572C760.324 306.572 760.008 307.205 760.008 308.726Z" fill="#6358DC"/>
<path d="M740.833 319.683C740.074 320.38 740.327 322.28 741.213 322.597C742.795 323.104 744.187 322.28 744.187 320.76C744.187 319.62 743.871 319.24 742.732 319.24C741.909 319.24 741.023 319.43 740.833 319.683Z" fill="#6358DC"/>
<path d="M760.451 321.52C759.629 322.344 760.008 325.004 761.021 325.384C762.539 325.954 764.248 323.927 763.425 322.534C762.666 321.33 761.147 320.824 760.451 321.52Z" fill="#6358DC"/>
<path d="M378.739 332.035C370.322 333.618 360.071 341.156 354.122 350.214C342.985 367.063 336.91 392.906 339.125 413.935C341.782 438.638 352.287 456.817 367.222 462.328C369.879 463.278 372.347 463.658 376.081 463.658C386.396 463.658 393.8 460.364 401.9 452.32C415.695 438.512 423.352 416.786 423.352 391.132C423.352 376.12 421.2 365.669 415.695 354.141C412.974 348.377 411.898 346.857 407.025 342.043C397.913 332.922 389.497 329.945 378.739 332.035ZM390.636 335.392C396.015 336.785 399.115 338.622 403.608 342.93C412.278 351.227 417.847 363.832 419.682 379.414C420.568 386.952 419.998 403.357 418.606 410.451C414.24 432.938 402.786 451.433 389.307 457.831C385.193 459.794 383.865 460.111 378.549 460.364C373.486 460.554 371.778 460.428 368.74 459.351C364.121 457.704 357.603 453.08 355.072 449.596C352.287 445.796 352.477 445.226 356.084 446.303C357.666 446.809 361.336 447.189 364.121 447.189C370.259 447.189 374.436 445.543 377.6 441.932C378.929 440.412 380.194 439.588 381.27 439.588C382.093 439.588 384.307 439.018 386.079 438.385C395.445 434.775 404.621 422.803 408.228 409.501C409.43 405.004 409.62 402.47 409.81 386.382C410.126 365.859 409.747 363.516 404.874 353.634C402.09 347.997 396.078 340.143 394.559 340.143C394.053 340.143 393.61 340.269 393.61 340.459C393.61 340.586 395.192 342.486 397.154 344.703C401.14 349.137 404.557 354.964 406.709 360.855C408.291 365.289 409.24 372.573 408.481 375.36L408.038 377.197L407.089 375.36C406.582 374.347 405 370.546 403.672 366.936C402.279 363.326 400.381 358.702 399.368 356.738C397.343 352.684 391.395 346.667 387.535 344.703C382.472 342.106 374.246 340.649 372.157 341.979C370.639 342.93 372.094 343.943 374.942 343.943C378.486 343.943 383.865 345.083 386.269 346.287C390.699 348.567 398.166 357.055 399.305 361.109C399.811 362.819 399.748 363.009 398.799 362.565C390.952 359.145 383.801 358.892 378.106 361.805C369.753 366.176 362.412 377.577 358.742 391.892C356.717 399.873 356.717 411.845 358.742 419.129C360.324 424.893 363.361 430.404 366.905 434.078C369.436 436.675 373.613 438.955 375.765 438.955C377.853 438.955 377.473 440.539 374.879 442.629C371.715 445.226 368.044 446.113 361.843 445.796C352.667 445.289 349.44 442.502 346.086 432.051C343.175 422.993 342.162 415.772 342.099 404.751C342.099 393.413 343.301 385.305 346.529 374.6C355.008 346.35 372.664 330.705 390.636 335.392ZM394.179 363.072C398.799 364.276 401.773 367.759 405.064 375.93L407.848 382.898L407.785 392.399C407.658 403.484 406.14 410.705 402.026 419.066C397.786 427.87 388.547 436.041 381.46 437.372C377.663 438.068 373.233 436.231 368.677 431.924C361.779 425.463 359.058 417.039 359.628 403.801C360.324 388.789 365.893 374.917 374.309 367.506C380.384 362.185 385.826 360.982 394.179 363.072Z" fill="#6358DC"/>
<path d="M391.585 378.844C389.813 379.858 390.129 383.088 392.028 383.975C395.065 385.369 398.356 381.251 396.014 378.908C395.065 377.958 393.04 377.958 391.585 378.844ZM394.242 381.315C394.242 381.631 393.989 381.948 393.61 381.948C393.293 381.948 392.977 381.631 392.977 381.315C392.977 380.935 393.293 380.681 393.61 380.681C393.989 380.681 394.242 380.935 394.242 381.315Z" fill="#6358DC"/>
<path d="M387.914 382.772C387.914 382.898 388.484 384.609 389.116 386.572C390.952 391.83 391.268 395.123 390.445 399.684C389.559 404.498 388.484 406.841 385.763 409.692C383.168 412.479 380.953 413.619 377.979 413.619C374.625 413.619 372.727 414.252 372.727 415.266C372.727 416.659 379.814 416.406 382.725 414.949C386.016 413.239 389.496 409.438 391.205 405.701C392.47 402.978 392.66 401.521 392.66 395.25C392.66 389.106 392.47 387.586 391.331 385.432C390.572 384.039 389.559 382.835 388.99 382.708C388.357 382.582 387.914 382.582 387.914 382.772Z" fill="#6358DC"/>
<path d="M365.512 385.305C364.5 386.002 364.437 386.382 365.069 387.585C365.639 388.662 366.208 388.852 367.221 388.535C369.056 387.965 369.626 387.015 368.866 385.622C368.107 384.291 367.094 384.165 365.512 385.305Z" fill="#6358DC"/>
<path d="M366.905 413.745C367.664 414.505 368.487 414.949 368.677 414.696C368.93 414.442 368.613 413.809 367.917 413.302C366.082 411.908 365.323 412.162 366.905 413.745Z" fill="#6358DC"/>
<path d="M376.523 420.27C375.891 421.03 375.891 421.41 376.523 422.17C377.789 423.753 380.004 423.12 380.004 421.22C380.004 419.32 377.789 418.686 376.523 420.27Z" fill="#6358DC"/>
</g>
<defs>
<clipPath id="clip0_109_119">
<rect width="810" height="527" fill="white"/>
</clipPath>
</defs>
</svg>
